<svg xmlns="http://www.w3.org/2000/svg" viewBox="0 0 200 200" fill="none">
  <defs>
    <linearGradient id="f1" x1="0" y1="0" x2="200" y2="200" gradientUnits="userSpaceOnUse">
      <stop offset="0" stop-color="#3DA89E"/>
      <stop offset="0.5" stop-color="#3D4D9E"/>
      <stop offset="1" stop-color="#7C6BAE"/>
    </linearGradient>
  </defs>
  <polygon points="100,10 130,100 100,100 70,100" fill="url(#f1)"/>
  <polygon points="190,100 100,130 100,100 100,70" fill="url(#f1)"/>
  <polygon points="100,190 70,100 100,100 130,100" fill="url(#f1)"/>
  <polygon points="10,100 100,70 100,100 100,130" fill="url(#f1)"/>
  <polygon points="35,35 100,70 100,100 70,100" fill="url(#f1)" opacity="0.85"/>
  <polygon points="165,35 100,100 100,70 130,100" fill="url(#f1)" opacity="0.85"/>
  <polygon points="165,165 130,100 100,100 100,130" fill="url(#f1)" opacity="0.85"/>
  <polygon points="35,165 70,100 100,100 100,130" fill="url(#f1)" opacity="0.85"/>
</svg>
